<?xml version="1.0" encoding="UTF-8" standalone="no"?>
<!-- Created with Inkscape (http://www.inkscape.org/) -->

<svg
   width="42.5924mm"
   height="34.583363mm"
   viewBox="0 0 42.5924 34.583363"
   version="1.1"
   id="svg5"
   inkscape:version="1.2.2 (b0a8486, 2022-12-01)"
   sodipodi:docname=" cheatsheets.svg"
   xmlns:inkscape="http://www.inkscape.org/namespaces/inkscape"
   xmlns:sodipodi="http://sodipodi.sourceforge.net/DTD/sodipodi-0.dtd"
   xmlns="http://www.w3.org/2000/svg"
   xmlns:svg="http://www.w3.org/2000/svg">
  <sodipodi:namedview
     id="namedview7"
     pagecolor="#ffffff"
     bordercolor="#666666"
     borderopacity="1.0"
     inkscape:showpageshadow="2"
     inkscape:pageopacity="0.0"
     inkscape:pagecheckerboard="0"
     inkscape:deskcolor="#d1d1d1"
     inkscape:document-units="mm"
     showgrid="false"
     inkscape:zoom="2.9545473"
     inkscape:cx="367.73823"
     inkscape:cy="101.70763"
     inkscape:window-width="1440"
     inkscape:window-height="847"
     inkscape:window-x="0"
     inkscape:window-y="25"
     inkscape:window-maximized="0"
     inkscape:current-layer="text249" />
  <defs
     id="defs2">
    <rect
       x="373.62064"
       y="198.61617"
       width="352.78677"
       height="261.11777"
       id="rect556" />
  </defs>
  <g
     inkscape:label="Layer 1"
     inkscape:groupmode="layer"
     id="layer1"
     transform="translate(-81.601999,-6.3109997)">
    <g
       inkscape:label="Clip"
       id="g431">
      <g
         aria-label="cheat sheets .dev"
         transform="scale(0.26458333)"
         id="text249"
         style="font-size:40px;white-space:pre">
        <g
           aria-label="cheat sheets .dev"
           id="text554"
           style="line-height:0.95;shape-inside:url(#rect556)">
          <path
             id="rect1038-2-6"
             style="font-size:40px;line-height:0.95;white-space:pre;shape-inside:url(#rect556);fill:#f6d51e;fill-opacity:1;stroke-width:0.596291;stroke-linecap:round;stroke-linejoin:bevel;paint-order:markers stroke fill"
             d="m 308.41701,65.275468 133.15934,-41.422869 27.8198,89.285891 -133.15933,41.42289 z"
             inkscape:export-filename="rect1038-2.svg"
             inkscape:export-xdpi="72"
             inkscape:export-ydpi="72" />
        </g>
        <path
           d="m 344.77452,67.090842 q -1.83594,0.8789 -3.49609,1.36718 -1.64063,0.48829 -3.4961,0.48829 -2.36328,0 -4.33593,-0.6836 -1.97266,-0.70312 -3.37891,-2.10937 -1.42578,-1.40625 -2.20703,-3.55469 -0.78125,-2.14844 -0.78125,-5.01953 0,-5.35156 2.92969,-8.39844 2.94921,-3.04687 7.77343,-3.04687 1.875,0 3.67188,0.52734 1.8164,0.52734 3.32031,1.28906 v 4.08203 h -0.19531 q -1.67969,-1.30859 -3.47656,-2.01172 -1.77735,-0.70312 -3.47657,-0.70312 -3.125,0 -4.9414,2.10937 -1.79688,2.08985 -1.79688,6.15235 0,3.94531 1.75781,6.07422 1.77735,2.10937 4.98047,2.10937 1.11328,0 2.26563,-0.29297 1.15234,-0.29297 2.07031,-0.76172 0.80078,-0.41015 1.50391,-0.85937 0.70312,-0.46875 1.11328,-0.80078 h 0.19531 z"
           id="path2712"
           style="line-height:1.25" />
        <path
           d="m 367.72374,68.458022 h -3.67187 v -12.42187 q 0,-1.50391 -0.17579,-2.8125 -0.17578,-1.32813 -0.64453,-2.07031 -0.48828,-0.82032 -1.40625,-1.21094 -0.91797,-0.41016 -2.38281,-0.41016 -1.50391,0 -3.14453,0.74219 -1.64063,0.74219 -3.14453,1.89453 v 16.28906 h -3.67188 v -30.39062 h 3.67188 v 10.99609 q 1.71875,-1.42578 3.55469,-2.22656 1.83593,-0.80078 3.76953,-0.80078 3.53515,0 5.39062,2.12891 1.85547,2.1289 1.85547,6.13281 z"
           id="path2714"
           style="line-height:1.25" />
        <path
           d="m 393.05577,57.930682 h -16.07422 q 0,2.01172 0.60547,3.51563 0.60547,1.48437 1.66016,2.4414 1.01562,0.9375 2.40234,1.40625 1.40625,0.46875 3.08594,0.46875 2.22656,0 4.47265,-0.8789 2.26563,-0.89844 3.22266,-1.75782 h 0.19531 v 4.00391 q -1.85547,0.78125 -3.78906,1.30859 -1.93359,0.52735 -4.0625,0.52735 -5.42969,0 -8.47656,-2.92969 -3.04688,-2.94922 -3.04688,-8.35938 0,-5.35156 2.91016,-8.49609 2.92969,-3.14453 7.69531,-3.14453 4.41406,0 6.79688,2.57812 2.40234,2.57813 2.40234,7.32422 z m -3.57422,-2.8125 q -0.0195,-2.89062 -1.46484,-4.47266 -1.42578,-1.58203 -4.35547,-1.58203 -2.94922,0 -4.70703,1.73828 -1.73828,1.73829 -1.97266,4.31641 z"
           id="path2716"
           style="line-height:1.25" />
        <path
           d="m 415.5753,68.458022 h -3.65234 v -2.32421 q -0.48828,0.33203 -1.32813,0.9375 -0.82031,0.58593 -1.60156,0.9375 -0.91797,0.44921 -2.10937,0.74218 -1.19141,0.3125 -2.79297,0.3125 -2.94922,0 -5,-1.95312 -2.05078,-1.95313 -2.05078,-4.98047 0,-2.48047 1.05468,-4.00391 1.07422,-1.54297 3.04688,-2.42187 1.99219,-0.87891 4.78515,-1.19141 2.79297,-0.3125 5.9961,-0.46875 v -0.5664 q 0,-1.25 -0.44922,-2.07032 -0.42969,-0.82031 -1.25,-1.28906 -0.78125,-0.44922 -1.875,-0.60547 -1.09375,-0.15625 -2.28516,-0.15625 -1.44531,0 -3.22265,0.39063 -1.77735,0.37109 -3.67188,1.09375 h -0.19531 v -3.73047 q 1.07422,-0.29297 3.10547,-0.64453 2.03125,-0.35157 4.0039,-0.35157 2.30469,0 4.00391,0.39063 1.71875,0.37109 2.96875,1.28906 1.23047,0.89844 1.875,2.32422 0.64453,1.42578 0.64453,3.53516 z m -3.65234,-5.37109 v -6.07422 q -1.67969,0.0977 -3.96485,0.29297 -2.26562,0.19531 -3.59375,0.56641 -1.58203,0.44922 -2.55859,1.40625 -0.97656,0.9375 -0.97656,2.59765 0,1.875 1.13281,2.83203 1.13281,0.9375 3.45703,0.9375 1.9336,0 3.53516,-0.74218 1.60156,-0.76172 2.96875,-1.81641 z"
           id="path2718"
           style="line-height:1.25" />
        <path
           d="m 433.97374,68.262712 q -1.03516,0.27344 -2.26563,0.44922 -1.21093,0.17578 -2.16796,0.17578 -3.33985,0 -5.07813,-1.79687 -1.73828,-1.79688 -1.73828,-5.76172 v -11.60156 h -2.48047 v -3.08594 h 2.48047 v -6.26953 h 3.67187 v 6.26953 h 7.57813 v 3.08594 h -7.57813 v 9.9414 q 0,1.71875 0.0781,2.69531 0.0781,0.95704 0.54687,1.79688 0.42969,0.78125 1.17188,1.15234 0.76172,0.35157 2.30469,0.35157 0.89843,0 1.875,-0.25391 0.97656,-0.27344 1.40625,-0.44922 h 0.19531 z"
           id="path2720"
           style="line-height:1.25" />
        <path
           d="m 344.22765,98.638781 q 0,2.988279 -2.48047,4.902349 -2.46094,1.91406 -6.73828,1.91406 -2.42188,0 -4.45313,-0.56641 -2.01172,-0.58594 -3.37891,-1.26953 v -4.121089 h 0.19532 q 1.73828,1.308589 3.86718,2.089839 2.12891,0.76172 4.08204,0.76172 2.42187,0 3.78906,-0.78125 1.36719,-0.78125 1.36719,-2.460939 0,-1.28906 -0.74219,-1.95312 -0.74219,-0.66407 -2.85156,-1.13282 -0.78125,-0.17578 -2.05079,-0.41015 -1.25,-0.234378 -2.28515,-0.507808 -2.8711,-0.76172 -4.08203,-2.22657 -1.19141,-1.48437 -1.19141,-3.63281 0,-1.34766 0.54688,-2.53906 0.5664,-1.19141 1.69921,-2.12891 1.09375,-0.91797 2.77344,-1.44531 1.69922,-0.54688 3.78906,-0.54688 1.95313,0 3.94532,0.48829 2.01172,0.46875 3.33984,1.15234 v 3.92578 h -0.19531 q -1.40625,-1.03516 -3.41797,-1.73828 -2.01172,-0.72266 -3.94531,-0.72266 -2.01172,0 -3.39844,0.78125 -1.38672,0.76172 -1.38672,2.28516 0,1.34766 0.83984,2.03125 0.82032,0.68359 2.65625,1.11328 1.01563,0.23438 2.26563,0.46875 1.26953,0.23438 2.10937,0.42969 2.5586,0.58594 3.94532,2.01172 1.38672,1.445308 1.38672,3.828118 z"
           id="path2722"
           style="line-height:1.25" />
        <path
           d="m 367.72374,104.92784 h -3.67187 V 92.505973 q 0,-1.50391 -0.17579,-2.8125 -0.17578,-1.32813 -0.64453,-2.07031 -0.48828,-0.82032 -1.40625,-1.21094 -0.91797,-0.41016 -2.38281,-0.41016 -1.50391,0 -3.14453,0.74219 -1.64063,0.74219 -3.14453,1.89453 v 16.289057 h -3.67188 V 74.537223 h 3.67188 v 10.99609 q 1.71875,-1.42578 3.55469,-2.22656 1.83593,-0.80078 3.76953,-0.80078 3.53515,0 5.39062,2.12891 1.85547,2.1289 1.85547,6.13281 z"
           id="path2724"
           style="line-height:1.25" />
        <path
           d="m 393.05577,94.400503 h -16.07422 q 0,2.011718 0.60547,3.515628 0.60547,1.48437 1.66016,2.441399 1.01562,0.9375 2.40234,1.40625 1.40625,0.46875 3.08594,0.46875 2.22656,0 4.47265,-0.8789 2.26563,-0.89844 3.22266,-1.757819 h 0.19531 v 4.003909 q -1.85547,0.78125 -3.78906,1.30859 -1.93359,0.52735 -4.0625,0.52735 -5.42969,0 -8.47656,-2.92969 -3.04688,-2.949219 -3.04688,-8.359377 0,-5.35156 2.91016,-8.49609 2.92969,-3.14453 7.69531,-3.14453 4.41406,0 6.79688,2.57812 2.40234,2.57813 2.40234,7.32422 z m -3.57422,-2.8125 q -0.0195,-2.89062 -1.46484,-4.47266 -1.42578,-1.58203 -4.35547,-1.58203 -2.94922,0 -4.70703,1.73828 -1.73828,1.73829 -1.97266,4.31641 z"
           id="path2726"
           style="line-height:1.25" />
        <path
           d="m 416.8839,94.400503 h -16.07422 q 0,2.011718 0.60547,3.515628 0.60546,1.48437 1.66015,2.441399 1.01563,0.9375 2.40235,1.40625 1.40625,0.46875 3.08593,0.46875 2.22657,0 4.47266,-0.8789 2.26562,-0.89844 3.22266,-1.757819 h 0.19531 v 4.003909 q -1.85547,0.78125 -3.78906,1.30859 -1.9336,0.52735 -4.0625,0.52735 -5.42969,0 -8.47657,-2.92969 -3.04687,-2.949219 -3.04687,-8.359377 0,-5.35156 2.91015,-8.49609 2.92969,-3.14453 7.69532,-3.14453 4.41406,0 6.79687,2.57812 2.40235,2.57813 2.40235,7.32422 z m -3.57422,-2.8125 q -0.0195,-2.89062 -1.46485,-4.47266 -1.42578,-1.58203 -4.35547,-1.58203 -2.94921,0 -4.70703,1.73828 -1.73828,1.73829 -1.97265,4.31641 z"
           id="path2728"
           style="line-height:1.25" />
        <path
           d="m 433.77843,104.73253 q -1.03516,0.27344 -2.26563,0.44922 -1.21094,0.17578 -2.16797,0.17578 -3.33984,0 -5.07812,-1.79687 -1.73828,-1.79688 -1.73828,-5.761719 V 86.197383 h -2.48047 v -3.08594 h 2.48047 v -6.26953 h 3.67187 v 6.26953 h 7.57813 v 3.08594 h -7.57813 v 9.941398 q 0,1.71875 0.0781,2.69531 0.0781,0.95704 0.54687,1.796879 0.42969,0.78125 1.17188,1.15234 0.76172,0.35157 2.30468,0.35157 0.89844,0 1.875,-0.25391 0.97657,-0.27344 1.40625,-0.44922 h 0.19532 z"
           id="path2730"
           style="line-height:1.25" />
        <path
           d="m 454.93173,98.638781 q 0,2.988279 -2.48047,4.902349 -2.46094,1.91406 -6.73828,1.91406 -2.42188,0 -4.45313,-0.56641 -2.01172,-0.58594 -3.3789,-1.26953 v -4.121089 h 0.19531 q 1.73828,1.308589 3.86719,2.089839 2.1289,0.76172 4.08203,0.76172 2.42187,0 3.78906,-0.78125 1.36719,-0.78125 1.36719,-2.460939 0,-1.28906 -0.74219,-1.95312 -0.74219,-0.66407 -2.85156,-1.13282 -0.78125,-0.17578 -2.05078,-0.41015 -1.25,-0.234378 -2.28516,-0.507808 -2.87109,-0.76172 -4.08203,-2.22657 -1.19141,-1.48437 -1.19141,-3.63281 0,-1.34766 0.54688,-2.53906 0.5664,-1.19141 1.69922,-2.12891 1.09375,-0.91797 2.77343,-1.44531 1.69922,-0.54688 3.78907,-0.54688 1.95312,0 3.94531,0.48829 2.01172,0.46875 3.33984,1.15234 v 3.92578 h -0.19531 q -1.40625,-1.03516 -3.41797,-1.73828 -2.01172,-0.72266 -3.94531,-0.72266 -2.01172,0 -3.39844,0.78125 -1.38672,0.76172 -1.38672,2.28516 0,1.34766 0.83985,2.03125 0.82031,0.68359 2.65625,1.11328 1.01562,0.23438 2.26562,0.46875 1.26953,0.23438 2.10938,0.42969 2.55859,0.58594 3.94531,2.01172 1.38672,1.445308 1.38672,3.828118 z"
           id="path2732"
           style="line-height:1.25" />
        <path
           d="m 370.43591,140.28767 q -1.03516,0.27344 -2.26563,0.44922 -1.21094,0.17578 -2.16797,0.17578 -3.33984,0 -5.07812,-1.79687 -1.73829,-1.79688 -1.73829,-5.76172 v -11.60156 h -2.48046 v -3.08594 h 2.48046 v -6.26953 h 3.67188 v 6.26953 h 7.57813 v 3.08594 h -7.57813 v 9.9414 q 0,1.71875 0.0781,2.69531 0.0781,0.95704 0.54688,1.79688 0.42968,0.78125 1.17187,1.15234 0.76172,0.35157 2.30469,0.35157 0.89844,0 1.875,-0.25391 0.97657,-0.27344 1.40625,-0.44922 h 0.19532 z"
           id="path2736"
           style="line-height:1.25" />
        <path
           d="M 393.13122,129.95564 H 377.057 q 0,2.01172 0.60547,3.51563 0.60547,1.48437 1.66015,2.4414 1.01563,0.9375 2.40235,1.40625 1.40625,0.46875 3.08594,0.46875 2.22656,0 4.47265,-0.8789 2.26563,-0.89844 3.22266,-1.75782 h 0.19531 v 4.00391 q -1.85547,0.78125 -3.78906,1.30859 -1.9336,0.52735 -4.0625,0.52735 -5.42969,0 -8.47656,-2.92969 -3.04688,-2.94922 -3.04688,-8.35938 0,-5.35156 2.91016,-8.49609 2.92968,-3.14453 7.69531,-3.14453 4.41406,0 6.79687,2.57812 2.40235,2.57813 2.40235,7.32422 z m -3.57422,-2.8125 q -0.0195,-2.89062 -1.46484,-4.47266 -1.42579,-1.58203 -4.35547,-1.58203 -2.94922,0 -4.70703,1.73828 -1.73829,1.73829 -1.97266,4.31641 z"
           id="path2738"
           style="line-height:1.25" />
        <path
           d="m 414.83044,139.1158 q -1.83594,0.8789 -3.4961,1.36718 -1.64062,0.48829 -3.49609,0.48829 -2.36328,0 -4.33594,-0.6836 -1.97266,-0.70312 -3.37891,-2.10937 -1.42578,-1.40625 -2.20703,-3.55469 -0.78125,-2.14844 -0.78125,-5.01953 0,-5.35156 2.92969,-8.39844 2.94922,-3.04687 7.77344,-3.04687 1.875,0 3.67187,0.52734 1.81641,0.52734 3.32032,1.28906 v 4.08203 h -0.19532 q -1.67968,-1.30859 -3.47656,-2.01172 -1.77734,-0.70312 -3.47656,-0.70312 -3.125,0 -4.94141,2.10937 -1.79687,2.08985 -1.79687,6.15235 0,3.94531 1.75781,6.07422 1.77734,2.10937 4.98047,2.10937 1.11328,0 2.26562,-0.29297 1.15235,-0.29297 2.07032,-0.76172 0.80078,-0.41015 1.5039,-0.85937 0.70313,-0.46875 1.11328,-0.80078 h 0.19532 z"
           id="path2740"
           style="line-height:1.25" />
        <path
           d="m 437.77965,140.48298 h -3.67187 v -12.42187 q 0,-1.50391 -0.17578,-2.8125 -0.17578,-1.32813 -0.64453,-2.07031 -0.48828,-0.82032 -1.40625,-1.21094 -0.91797,-0.41016 -2.38282,-0.41016 -1.5039,0 -3.14453,0.74219 -1.64062,0.74219 -3.14453,1.89453 v 16.28906 h -3.67187 v -30.39062 h 3.67187 v 10.99609 q 1.71875,-1.42578 3.55469,-2.22656 1.83594,-0.80078 3.76953,-0.80078 3.53516,0 5.39063,2.12891 1.85546,2.1289 1.85546,6.13281 z"
           id="path2742"
           style="line-height:1.25" />
        <circle
           style="fill:#000000;stroke-width:0;stroke-linecap:round;stroke-linejoin:bevel;stroke-dasharray:none;paint-order:markers stroke fill"
           id="path11488"
           cx="346.97461"
           cy="136.7807"
           r="4.4152994" />
      </g>
    </g>
  </g>
</svg>
